<?xml version="1.0" standalone="no"?>
<!DOCTYPE svg PUBLIC "-//W3C//DTD SVG 20010904//EN"
 "http://www.w3.org/TR/2001/REC-SVG-20010904/DTD/svg10.dtd">
<svg version="1.0" xmlns="http://www.w3.org/2000/svg"
 width="500.000000pt" height="500.000000pt" viewBox="0 0 500.000000 500.000000"
 preserveAspectRatio="xMidYMid meet">
<metadata>
Created by potrace 1.11, written by Peter Selinger 2001-2013
</metadata>
<g transform="translate(0.000000,500.000000) scale(0.100000,-0.100000)"
fill="#000000" stroke="none">
<path d="M560 4986 c0 -20 21 -34 60 -41 18 -3 37 -8 41 -11 4 -2 11 0 14 6 4
6 21 8 38 5 35 -6 46 -1 65 33 l12 22 -115 0 c-91 0 -115 -3 -115 -14z"/>
<path d="M960 4991 c0 -6 19 -9 48 -7 26 2 37 2 25 -1 -13 -2 -23 -8 -23 -13
0 -5 13 -4 29 1 15 5 32 9 37 8 20 -3 44 2 44 10 0 4 -36 9 -80 10 -49 1 -80
-2 -80 -8z"/>
<path d="M1130 4996 c0 -2 11 -6 25 -8 13 -3 22 -1 19 3 -5 9 -44 13 -44 5z"/>
<path d="M1256 4990 c5 -5 26 -10 46 -12 20 -1 34 -6 32 -10 -3 -5 -9 -6 -14
-3 -5 3 -11 1 -15 -5 -3 -5 0 -10 7 -10 10 0 9 -3 -2 -10 -21 -13 -7 -22 42
-26 l43 -4 -31 16 c-31 16 -31 17 -13 35 11 11 25 16 35 12 11 -4 15 -3 10 5
-4 7 6 12 26 15 18 2 -14 5 -71 5 -67 1 -102 -1 -95 -8z"/>
<path d="M1590 4990 c0 -5 5 -10 10 -10 6 0 10 5 10 10 0 6 -4 10 -10 10 -5 0
-10 -4 -10 -10z"/>
<path d="M1622 4988 c6 -18 28 -21 28 -4 0 9 -7 16 -16 16 -9 0 -14 -5 -12
-12z"/>
<path d="M1933 4989 c11 -7 23 -7 35 0 14 9 11 10 -18 10 -29 0 -32 -1 -17
-10z"/>
<path d="M2022 4980 c-9 -15 -7 -19 14 -23 13 -2 27 0 30 5 3 4 11 5 17 1 19
-12 37 -12 37 -1 0 6 11 3 24 -5 23 -15 24 -15 19 3 -3 11 -12 20 -19 20 -8 0
-14 5 -14 10 0 18 -96 9 -108 -10z"/>
<path d="M2203 4993 c4 -3 1 -13 -6 -21 -9 -11 -4 -11 16 2 26 18 27 18 27 0
1 -18 1 -18 15 0 14 19 15 19 15 1 0 -17 1 -17 20 0 18 16 20 16 35 1 9 -9 21
-16 27 -16 6 0 6 -6 -2 -15 -10 -12 -10 -15 0 -15 6 0 14 9 17 19 3 12 11 17
19 14 10 -3 12 0 8 10 -3 10 1 17 13 20 10 3 -33 5 -96 6 -63 0 -111 -2 -108
-6z"/>
<path d="M2475 4993 c11 -3 26 -12 33 -21 11 -14 12 -13 12 6 0 18 -5 22 -32
21 -21 -1 -26 -3 -13 -6z"/>
<path d="M2546 4985 c4 -8 8 -15 10 -15 2 0 4 7 4 15 0 8 -4 15 -10 15 -5 0
-7 -7 -4 -15z"/>
<path d="M2575 4990 c4 -6 11 -8 16 -5 14 9 11 15 -7 15 -8 0 -12 -5 -9 -10z"/>
<path d="M2681 4984 c-11 -13 -10 -15 5 -12 14 2 18 -2 16 -16 -3 -16 -1 -18
11 -8 7 6 16 10 19 7 3 -3 11 1 18 10 17 21 36 19 53 -5 11 -16 16 -18 25 -8
6 7 12 17 14 23 1 5 8 9 15 7 6 -1 15 2 18 8 5 8 -15 10 -64 9 -39 -1 -68 -6
-65 -11 10 -16 -7 -28 -20 -15 -10 9 -11 14 -2 19 7 5 3 8 -9 7 -11 0 -26 -7
-34 -15z"/>
<path d="M2890 4992 c0 -15 43 -23 55 -10 7 7 5 9 -5 6 -8 -3 -23 -1 -32 4
-11 5 -18 5 -18 0z"/>
<path d="M3190 4993 c14 -3 28 -10 32 -17 5 -7 8 -5 8 7 0 13 -8 17 -32 16
-28 -2 -29 -2 -8 -6z"/>
<path d="M3366 4991 c-4 -5 3 -7 14 -4 23 6 26 13 6 13 -8 0 -17 -4 -20 -9z"/>
<path d="M3435 4990 c27 -12 35 -12 35 0 0 6 -12 10 -27 9 -25 0 -26 -1 -8 -9z"/>
<path d="M3490 4990 c13 -8 13 -10 1 -10 -11 0 -9 -4 5 -15 10 -8 24 -14 29
-15 6 0 3 5 -5 11 -11 8 -12 12 -2 16 22 9 13 23 -15 23 -22 0 -25 -2 -13 -10z"/>
<path d="M3551 4991 c-10 -6 -6 -11 15 -19 19 -7 23 -11 11 -11 -10 -1 -15 -6
-12 -12 5 -7 15 -3 29 10 12 12 26 18 30 14 4 -4 4 0 0 10 -7 20 -30 23 -37 5
-4 -10 -6 -10 -6 0 -1 14 -10 15 -30 3z"/>
<path d="M3635 4990 c3 -5 8 -10 11 -10 2 0 4 5 4 10 0 6 -5 10 -11 10 -5 0
-7 -4 -4 -10z"/>
<path d="M3685 4986 c13 -9 22 -11 26 -4 8 13 20 12 29 -1 10 -17 70 -32 70
-18 0 7 4 6 10 -3 9 -13 12 -13 21 3 5 9 15 17 20 17 6 0 8 -4 4 -9 -8 -15 33
-24 72 -16 32 6 35 4 29 -12 -6 -14 -5 -16 5 -5 7 6 17 12 22 12 4 0 5 -6 1
-12 -6 -10 -5 -10 7 -1 12 9 18 10 27 1 8 -8 15 -8 26 1 8 7 20 10 25 7 5 -4
12 -2 16 4 11 17 25 11 35 -15 8 -22 13 -24 29 -15 26 13 31 13 31 -4 0 -16
-43 -30 -48 -16 -2 5 -17 7 -33 3 -21 -4 -29 -2 -29 8 0 11 -2 11 -8 2 -13
-20 -199 -42 -412 -48 -215 -6 -287 -12 -296 -26 -3 -5 -15 -9 -27 -9 -12 0
-29 -5 -37 -10 -17 -11 46 -4 95 11 17 5 91 11 165 15 74 3 136 7 139 10 2 2
10 -1 18 -7 8 -7 26 -9 46 -5 17 4 68 11 112 16 44 5 111 14 149 20 42 8 71 8
75 3 4 -6 34 -7 76 -2 74 8 148 2 140 -12 -9 -14 27 -17 189 -18 87 0 161 -2
163 -4 2 -3 -3 -12 -12 -21 -9 -9 -12 -16 -6 -16 5 0 13 5 16 10 4 6 11 8 16
5 5 -4 9 1 9 9 0 10 7 13 21 11 12 -3 29 0 38 5 13 7 10 9 -14 10 -202 2 -385
24 -385 45 0 18 47 37 54 22 2 -7 5 -1 6 13 1 14 4 19 7 12 2 -6 10 -9 16 -5
6 4 8 1 5 -8 -4 -10 2 -15 19 -17 13 -1 22 2 19 7 -7 10 20 9 30 -2 4 -3 15 4
25 16 10 12 18 16 19 10 0 -7 -4 -13 -9 -13 -5 0 -7 -9 -4 -20 4 -16 8 -18 19
-9 8 6 14 17 14 23 0 7 9 12 20 13 11 1 20 -2 20 -8 0 -5 -5 -9 -12 -9 -6 0
-9 -2 -7 -5 3 -2 15 -2 27 2 17 4 20 9 12 23 -7 13 -7 21 0 25 6 3 13 -1 16
-9 3 -9 10 -13 16 -10 5 3 15 -1 21 -10 14 -18 61 -11 54 9 -3 6 4 17 15 24
18 11 20 11 14 -4 -5 -13 -2 -16 10 -11 9 4 23 1 30 -5 11 -9 14 -8 14 2 0 8
6 5 15 -7 13 -16 16 -17 24 -4 9 13 12 13 23 1 8 -9 9 -11 1 -7 -19 11 -25
-12 -6 -24 16 -9 15 -10 -6 -8 -13 2 -26 -3 -28 -10 -3 -7 1 -10 11 -6 20 8
22 -19 2 -35 -10 -9 -15 -8 -20 4 -3 8 -15 15 -26 15 -12 0 -18 -5 -15 -10 4
-6 11 -7 17 -4 6 4 6 -1 -1 -14 -6 -12 -11 -25 -10 -29 3 -20 -2 -34 -11 -28
-6 4 -8 11 -5 16 4 5 -1 9 -9 9 -9 0 -13 -6 -10 -14 4 -11 0 -13 -15 -9 -12 3
-24 9 -27 14 -2 4 -16 -1 -29 -13 -19 -16 -22 -25 -14 -35 6 -7 16 -10 22 -6
6 3 7 1 3 -5 -4 -7 -21 -12 -37 -12 -18 0 -28 -4 -24 -10 3 -5 -1 -10 -10 -10
-9 0 -13 5 -10 10 3 6 -3 10 -15 10 -21 0 -21 0 -1 -21 11 -12 24 -18 30 -14
15 9 39 -16 34 -35 -3 -8 5 -4 16 9 12 13 27 21 36 17 13 -5 14 -2 4 17 -11
20 -11 21 4 9 18 -16 37 -8 37 14 0 8 5 12 11 9 6 -4 8 -13 5 -20 -5 -14 20
-29 35 -20 5 3 18 1 30 -6 12 -6 24 -7 28 -3 3 5 31 9 61 9 64 0 75 17 36 56
-18 18 -22 29 -15 39 5 9 9 10 9 4 0 -7 8 -15 18 -19 13 -5 14 -3 5 6 -8 8 -9
19 -2 36 7 18 6 24 -3 21 -7 -3 -23 1 -37 8 -20 10 -28 10 -47 -2 -34 -23 -19
-50 24 -45 6 1 12 -7 12 -18 0 -11 5 -21 12 -23 18 -6 -25 -45 -47 -42 -32 5
-42 24 -21 40 12 8 14 14 7 14 -20 0 -58 34 -53 48 2 7 8 9 13 6 14 -8 39 15
33 31 -3 7 2 25 11 39 9 14 16 28 15 33 -1 4 4 9 11 12 8 2 10 -2 6 -12 -9
-23 18 -28 41 -7 11 10 23 16 26 13 3 -4 6 8 6 25 l0 31 -667 1 c-582 0 -665
-1 -648 -14z m580 -32 c14 -12 16 -18 7 -21 -8 -3 -10 -9 -3 -16 7 -9 -1 -13
-28 -15 -34 -2 -37 0 -35 25 1 16 7 27 13 26 6 -2 11 2 11 7 0 14 12 12 35 -6z
m455 2 c0 -11 -19 -15 -25 -6 -3 5 1 10 9 10 9 0 16 -2 16 -4z m-337 -83 c-7
-2 -21 -2 -30 0 -10 3 -4 5 12 5 17 0 24 -2 18 -5z m382 -103 c3 -5 -1 -10 -9
-10 -9 0 -16 5 -16 10 0 6 4 10 9 10 6 0 13 -4 16 -10z m45 -23 c0 -18 -2 -19
-10 -7 -13 20 -13 43 0 35 6 -3 10 -16 10 -28z"/>
<path d="M1680 4980 c0 -5 7 -10 16 -10 8 0 12 5 9 10 -3 6 -10 10 -16 10 -5
0 -9 -4 -9 -10z"/>
<path d="M2638 4983 c7 -3 16 -2 19 1 4 3 -2 6 -13 5 -11 0 -14 -3 -6 -6z"/>
<path d="M3090 4976 c0 -2 9 -6 20 -9 11 -3 20 -1 20 4 0 5 -9 9 -20 9 -11 0
-20 -2 -20 -4z"/>
<path d="M3430 4959 c0 -5 5 -7 10 -4 6 3 10 8 10 11 0 2 -4 4 -10 4 -5 0 -10
-5 -10 -11z"/>
<path d="M1175 4950 l-30 -8 37 -1 c20 0 48 -5 62 -11 14 -5 26 -8 26 -5 0 3
-62 36 -64 34 -1 -1 -14 -5 -31 -9z"/>
<path d="M4491 4908 c-1 -20 14 -24 25 -6 4 6 3 8 -4 4 -5 -3 -13 0 -15 6 -3
8 -6 6 -6 -4z"/>
<path d="M4810 4899 c0 -5 5 -7 10 -4 6 3 10 8 10 11 0 2 -4 4 -10 4 -5 0 -10
-5 -10 -11z"/>
<path d="M4955 4899 c-5 -8 -4 -10 3 -5 7 4 12 2 12 -3 0 -6 -5 -11 -12 -11
-19 0 1 -14 22 -15 25 -2 25 1 1 26 -14 15 -21 17 -26 8z"/>
<path d="M11 4883 c-19 -21 2 -39 46 -41 28 -1 34 1 25 10 -7 7 -12 16 -12 21
0 5 7 1 16 -7 17 -17 59 -22 49 -6 -3 5 -13 6 -22 3 -11 -4 -14 -3 -9 6 4 6 4
11 -1 10 -4 -1 -15 0 -23 4 -35 13 -56 13 -69 0z"/>
<path d="M194 4886 c-3 -8 -3 -20 1 -26 3 -5 1 -10 -4 -10 -6 0 -11 -3 -11 -7
0 -5 14 -7 30 -7 72 3 73 3 61 17 -7 9 -7 17 0 24 6 6 5 10 -3 10 -8 0 -26 3
-41 7 -20 5 -29 2 -33 -8z"/>
<path d="M355 4890 c-3 -5 -1 -10 4 -10 6 0 11 5 11 10 0 6 -2 10 -4 10 -3 0
-8 -4 -11 -10z"/>
<path d="M4771 4884 c0 -11 3 -14 6 -6 3 7 2 16 -1 19 -3 4 -6 -2 -5 -13z"/>
<path d="M390 4878 c0 -9 -6 -19 -12 -21 -10 -4 -10 -6 0 -6 14 -1 28 26 18
36 -3 4 -6 -1 -6 -9z"/>
<path d="M2350 4880 c-11 -8 -7 -9 15 -4 37 8 45 14 19 14 -10 0 -26 -5 -34
-10z"/>
<path d="M1150 4870 c0 -5 5 -10 10 -10 6 0 10 5 10 10 0 6 -4 10 -10 10 -5 0
-10 -4 -10 -10z"/>
<path d="M2235 4870 c3 -5 8 -10 11 -10 2 0 4 5 4 10 0 6 -5 10 -11 10 -5 0
-7 -4 -4 -10z"/>
<path d="M2726 4852 c-3 -5 8 -9 24 -10 16 0 32 4 35 9 4 5 -7 9 -24 9 -16 0
-32 -4 -35 -8z"/>
<path d="M2860 4850 c-11 -8 -7 -10 18 -8 17 1 32 6 32 10 0 11 -32 10 -50 -2z"/>
<path d="M141 4837 c-8 -10 -7 -14 4 -14 8 0 16 6 19 14 3 7 2 13 -3 13 -5 0
-14 -6 -20 -13z"/>
<path d="M944 4838 c2 -7 8 -13 14 -13 5 0 14 -3 18 -7 12 -13 21 -9 21 8 0
11 -7 14 -23 11 -13 -2 -25 0 -28 5 -2 5 -3 3 -2 -4z"/>
<path d="M2978 4837 c-44 -18 -33 -30 20 -22 26 4 81 11 122 15 l75 7 -60 2
c-33 1 -76 3 -95 6 -19 2 -47 -1 -62 -8z"/>
<path d="M3228 4833 c12 -2 32 -2 45 0 12 2 2 4 -23 4 -25 0 -35 -2 -22 -4z"/>
<path d="M1913 4823 c15 -2 39 -2 55 0 15 2 2 4 -28 4 -30 0 -43 -2 -27 -4z"/>
<path d="M2385 4820 c-13 -6 -15 -9 -5 -9 8 0 22 4 30 9 18 12 2 12 -25 0z"/>
<path d="M4550 4805 c0 -8 -4 -15 -10 -15 -5 0 -10 -5 -10 -10 0 -7 7 -7 20 0
11 6 26 8 33 4 9 -6 9 -4 0 8 -7 8 -10 18 -6 21 3 4 -1 7 -10 7 -9 0 -17 -7
-17 -15z"/>
<path d="M4305 4760 c3 -5 10 -10 16 -10 5 0 9 5 9 10 0 6 -7 10 -16 10 -8 0
-12 -4 -9 -10z"/>
<path d="M4515 4750 c3 -5 8 -10 11 -10 2 0 4 5 4 10 0 6 -5 10 -11 10 -5 0
-7 -4 -4 -10z"/>
<path d="M4324 4725 c8 -8 17 -15 20 -15 3 0 6 7 6 15 0 9 -9 15 -21 15 -18 0
-19 -2 -5 -15z"/>
<path d="M4746 4684 c-8 -21 -4 -25 14 -14 11 7 12 12 4 20 -8 8 -13 7 -18 -6z"/>
<path d="M4815 4680 c3 -5 8 -10 11 -10 2 0 4 5 4 10 0 6 -5 10 -11 10 -5 0
-7 -4 -4 -10z"/>
<path d="M4884 4674 c3 -9 6 -18 6 -20 0 -2 9 1 19 8 23 14 18 28 -11 28 -14
0 -18 -5 -14 -16z"/>
<path d="M4962 4673 c-10 -4 -10 -8 -2 -18 11 -14 40 -10 40 5 0 11 -22 18
-38 13z"/>
<path d="M4600 4630 c-321 -4 -2825 -11 -4092 -10 l-508 0 0 -35 0 -35 53 0
c48 0 4811 0 4905 0 l42 0 0 40 c0 22 -4 40 -9 40 -5 0 -15 1 -23 3 -7 1 -173
0 -368 -3z"/>
<path d="M51 4474 c0 -11 3 -14 6 -6 3 7 2 16 -1 19 -3 4 -6 -2 -5 -13z"/>
<path d="M4991 4294 c0 -11 3 -14 6 -6 3 7 2 16 -1 19 -3 4 -6 -2 -5 -13z"/>
<path d="M4338 4273 c7 -3 16 -2 19 1 4 3 -2 6 -13 5 -11 0 -14 -3 -6 -6z"/>
<path d="M0 4093 l0 -33 158 0 c86 0 1178 0 2427 0 1249 0 2303 0 2343 0 l72
0 0 34 0 34 -2500 -2 -2500 -1 0 -32z"/>
<path d="M2153 3651 l-5 -21 -1074 0 -1074 0 0 -35 0 -35 1080 0 c594 0 1080
3 1080 8 0 4 -276 7 -613 7 -336 0 -794 2 -1017 5 -223 3 551 6 1719 8 1168 1
2122 0 2120 -2 -2 -2 -233 -7 -514 -10 -280 -4 -511 -9 -514 -11 -2 -3 370 -5
827 -5 l832 0 0 38 0 37 -1410 -3 c-1260 -3 -1410 -2 -1410 12 0 24 -21 30
-27 7z m-2055 -68 c-16 -2 -40 -2 -55 0 -16 2 -3 4 27 4 30 0 43 -2 28 -4z"/>
<path d="M2393 3563 c126 -2 328 -2 450 0 122 1 20 2 -228 2 -247 0 -347 -1
-222 -2z"/>
<path d="M3133 3563 c37 -2 97 -2 135 0 37 2 6 3 -68 3 -74 0 -105 -1 -67 -3z"/>
<path d="M4106 3142 c-447 -2 -449 -2 -431 -22 17 -19 33 -20 314 -22 180 -1
263 -4 211 -8 l-85 -6 90 -3 c50 -2 249 -5 443 -7 l352 -3 0 40 0 40 -222 -3
c-123 -2 -425 -4 -672 -6z"/>
<path d="M0 3107 l0 -33 183 3 c100 2 288 4 417 5 209 2 195 3 -130 8 -313 5
-268 6 313 8 670 2 677 2 677 22 0 20 -7 20 -730 20 l-730 0 0 -33z"/>
<path d="M2606 3130 c7 -7 19 -7 35 -1 23 9 22 10 -10 10 -24 1 -32 -2 -25 -9z"/>
<path d="M853 3083 c9 -2 25 -2 35 0 9 3 1 5 -18 5 -19 0 -27 -2 -17 -5z"/>
<path d="M3958 3083 c7 -3 16 -2 19 1 4 3 -2 6 -13 5 -11 0 -14 -3 -6 -6z"/>
<path d="M4043 3083 c9 -2 23 -2 30 0 6 3 -1 5 -18 5 -16 0 -22 -2 -12 -5z"/>
<path d="M4710 3024 c0 -8 5 -14 10 -14 6 0 10 5 10 10 0 6 5 10 10 10 6 0 10
-6 10 -14 0 -8 5 -18 12 -22 7 -5 9 -1 6 12 -5 18 0 20 48 19 29 0 56 -3 60
-7 4 -5 34 -8 66 -8 32 0 58 3 58 8 0 4 -24 6 -52 6 -29 -1 -57 2 -63 6 -5 5
-47 8 -92 8 -65 0 -83 -3 -83 -14z"/>
<path d="M4975 2990 c-3 -6 1 -7 9 -4 18 7 21 14 7 14 -6 0 -13 -4 -16 -10z"/>
<path d="M4899 2947 c5 -5 21 -7 37 -5 27 3 26 4 -8 9 -22 3 -34 1 -29 -4z"/>
<path d="M4957 2898 c-9 -5 -17 -12 -17 -16 0 -12 53 -7 57 5 5 15 -20 22 -40
11z"/>
<path d="M4713 2823 c9 -2 25 -2 35 0 9 3 1 5 -18 5 -19 0 -27 -2 -17 -5z"/>
<path d="M4925 2820 c-4 -6 7 -10 27 -9 27 0 30 2 13 9 -27 12 -33 12 -40 0z"/>
<path d="M23 2652 c-28 -4 -31 -38 -6 -45 17 -4 17 -5 1 -6 -10 0 -18 -5 -18
-10 0 -4 33 -7 73 -5 39 2 88 4 107 4 29 1 31 3 15 10 -14 6 0 8 45 8 60 -1
62 -1 20 -7 -93 -13 -2 -19 240 -16 270 3 304 5 215 15 -33 4 191 7 497 8 546
2 558 2 568 22 11 20 7 20 -662 22 -1001 3 -1071 3 -1095 0z m130 -49 c-13 -2
-35 -2 -50 0 -16 2 -5 4 22 4 28 0 40 -2 28 -4z m215 0 c-10 -2 -28 -2 -40 0
-13 2 -5 4 17 4 22 1 32 -1 23 -4z m229 0 c-31 -2 -83 -2 -115 0 -31 2 -5 3
58 3 63 0 89 -1 57 -3z"/>
<path d="M4210 2652 c-522 -2 -536 -3 -548 -22 -12 -20 -9 -20 500 -22 282 -1
446 -4 363 -5 -82 -2 -154 -8 -159 -13 -7 -7 104 -10 312 -10 191 0 322 4 322
9 0 5 -8 12 -17 14 -17 4 -17 5 0 6 20 1 24 40 5 43 -22 3 -227 3 -778 0z
m513 -49 c-7 -2 -21 -2 -30 0 -10 3 -4 5 12 5 17 0 24 -2 18 -5z"/>
<path d="M2007 2643 c-4 -3 -7 -12 -7 -20 0 -11 70 -13 379 -13 336 0 380 2
385 16 3 9 6 18 6 20 0 7 -756 4 -763 -3z"/>
<path d="M3010 2629 c-12 -21 -11 -21 167 -17 138 3 186 7 213 20 34 16 28 16
-167 17 -195 1 -203 0 -213 -20z"/>
<path d="M4985 2410 c-3 -5 -1 -10 4 -10 6 0 11 5 11 10 0 6 -2 10 -4 10 -3 0
-8 -4 -11 -10z"/>
<path d="M4810 2349 c0 -5 -8 -9 -17 -9 -15 0 -16 -2 -3 -10 8 -5 11 -10 5
-10 -5 0 -3 -5 5 -10 12 -8 9 -10 -12 -10 -19 0 -26 -4 -22 -14 4 -10 19 -13
52 -10 43 3 44 2 13 -6 -38 -9 -55 -29 -39 -47 7 -9 16 -10 29 -3 14 8 21 6
29 -7 11 -17 11 -17 6 0 -9 27 3 48 22 38 13 -6 23 0 42 23 13 17 18 25 9 19
-9 -7 -19 -10 -22 -6 -4 3 -9 -2 -13 -11 -11 -29 -24 -17 -17 17 7 40 7 39 27
31 9 -3 13 -11 9 -17 -3 -5 -1 -7 5 -4 10 7 5 46 -7 48 -55 6 -101 5 -101 -2z
m30 -18 c0 -5 8 -11 18 -13 14 -3 13 -5 -5 -10 -15 -4 -23 -1 -26 13 -3 11 -1
19 4 19 5 0 9 -4 9 -9z m5 -81 c3 -5 1 -10 -4 -10 -6 0 -11 5 -11 10 0 6 2 10
4 10 3 0 8 -4 11 -10z"/>
<path d="M4752 2335 c-11 -12 -10 -15 3 -15 8 0 15 7 15 15 0 18 -2 18 -18 0z"/>
<path d="M4700 2336 c0 -2 7 -7 16 -10 8 -3 12 -2 9 4 -6 10 -25 14 -25 6z"/>
<path d="M4752 2236 c7 -8 15 -12 17 -11 5 6 -10 25 -20 25 -5 0 -4 -6 3 -14z"/>
<path d="M0 2130 c0 -11 7 -20 15 -20 8 0 15 -4 15 -10 0 -5 -7 -7 -15 -4 -13
5 -15 -115 -15 -1045 l0 -1051 780 0 c692 0 780 2 780 15 0 22 -41 35 -108 34
-84 0 -92 1 -92 16 0 7 -20 17 -47 23 -34 8 500 10 1820 9 l1867 -2 0 228 0
228 -480 -2 c-382 -2 -482 -5 -491 -15 -8 -10 -5 -16 15 -25 33 -15 33 -23 0
-37 -14 -7 -23 -16 -20 -21 4 -5 -3 -7 -14 -4 -17 4 -19 2 -13 -13 6 -17 5
-17 -10 -5 -19 15 -37 7 -20 -10 7 -7 27 -7 62 -1 29 5 54 6 57 1 9 -15 41
-10 48 7 3 8 10 12 16 9 6 -4 5 -12 -5 -21 -8 -9 -14 -23 -14 -32 1 -15 2 -15
6 1 3 10 14 17 29 17 14 0 23 4 19 9 -3 5 -1 12 5 16 5 3 10 1 10 -4 0 -6 9
-11 20 -11 11 0 20 -4 20 -8 0 -5 -8 -9 -17 -9 -46 1 -76 -4 -70 -9 9 -9 117
-11 117 -2 0 3 -4 8 -9 10 -5 1 -3 9 5 16 12 11 14 10 15 -5 1 -10 1 -21 1
-24 -1 -8 31 -5 46 5 6 4 12 3 12 -3 0 -5 8 -11 18 -13 9 -3 -14 -5 -53 -6
-38 -1 -82 -2 -97 -3 -23 0 -28 -5 -28 -25 0 -13 9 -29 20 -36 23 -15 27 -30
5 -22 -9 4 -15 0 -15 -8 0 -8 -7 -15 -15 -15 -15 0 -17 27 -2 38 5 3 -1 9 -12
12 -12 3 -24 1 -27 -4 -3 -5 0 -9 7 -9 7 0 9 -3 6 -6 -4 -4 -13 -1 -21 5 -12
10 -15 9 -13 -7 1 -12 7 -18 17 -15 20 5 22 -18 3 -35 -8 -8 -13 -9 -13 -2 0
5 -7 10 -16 10 -12 0 -14 -3 -6 -13 8 -10 6 -13 -8 -13 -10 0 -16 4 -14 8 3 4
-2 5 -10 2 -9 -3 -13 -11 -9 -18 4 -7 1 -7 -9 1 -8 7 -19 9 -23 5 -5 -4 -5 -1
-1 5 4 8 1 13 -9 13 -9 0 -13 5 -10 10 3 6 -3 10 -14 10 -14 0 -19 -5 -15 -15
4 -8 1 -15 -5 -15 -6 0 -11 8 -12 18 0 15 -1 15 -7 1 -4 -10 -18 -15 -34 -15
-31 2 -70 33 -62 50 3 6 -1 3 -9 -7 -8 -9 -20 -17 -28 -17 -11 0 -11 -2 -1 -8
9 -6 5 -12 -13 -20 -16 -7 -23 -17 -19 -24 4 -6 3 -8 -4 -4 -6 3 -13 2 -16 -3
-3 -5 3 -11 14 -14 18 -5 24 3 22 24 -1 4 8 9 19 12 16 4 18 3 8 -9 -9 -11 -9
-14 1 -14 7 0 10 -7 6 -16 -5 -14 -4 -15 9 -4 8 7 13 16 10 20 -3 5 3 6 14 3
17 -4 17 -6 -4 -29 -24 -26 -63 -31 -84 -11 -11 9 -13 9 -7 0 6 -10 -46 -13
-246 -13 -1757 -1 -2052 1 -2059 12 -4 6 -16 12 -26 13 -10 0 -23 4 -29 8 -6
3 -11 0 -11 -6 0 -7 12 -14 25 -15 45 -4 35 -10 -15 -10 -26 0 -54 5 -61 11
-10 8 -16 7 -22 -3 -7 -12 -10 -12 -15 2 -4 10 -4 22 0 28 5 8 -1 10 -16 8
-21 -3 -24 2 -30 40 -3 23 -2 39 3 34 4 -4 9 -20 10 -35 1 -15 8 -27 14 -27 7
0 11 11 9 25 -1 14 4 33 12 42 8 10 12 13 9 6 -4 -7 1 -10 11 -8 10 2 24 4 32
4 10 1 6 8 -10 24 -13 13 -30 21 -38 18 -10 -3 -7 -7 9 -13 13 -5 20 -11 17
-14 -3 -3 -15 -1 -26 6 -17 9 -19 15 -11 30 6 11 7 20 2 20 -5 0 -14 -10 -19
-22 -10 -21 -12 -21 -18 -5 -8 19 1 50 12 44 5 -2 18 7 30 20 24 25 18 29 -36
24 -21 -2 -23 1 -18 26 3 15 9 37 13 47 6 15 4 17 -6 11 -9 -5 -11 -4 -6 4 4
6 -1 19 -10 29 -17 16 -18 16 -11 0 3 -10 2 -18 -3 -18 -6 0 -10 12 -10 28
l-1 27 -14 -25 c-8 -14 -14 -20 -15 -13 0 7 -7 10 -17 7 -15 -5 -15 -3 1 10
19 16 19 16 -2 16 -15 0 -24 -8 -28 -26 -6 -22 -8 -24 -16 -10 -5 9 -7 20 -4
25 6 8 -71 21 -131 21 -18 0 -33 5 -33 10 0 6 -7 10 -15 10 -8 0 -15 -4 -15
-10 0 -5 -5 -10 -11 -10 -5 0 -8 4 -5 9 9 13 -18 20 -55 14 -50 -7 -51 -16 -1
-11 23 2 42 0 42 -4 0 -5 -28 -8 -62 -7 -43 0 -57 3 -43 9 17 6 14 9 -17 15
-21 4 -48 5 -60 2 -13 -2 -34 -1 -48 4 -14 4 953 7 2148 6 l2172 -2 0 228 0
228 -42 -1 c-24 0 -113 -1 -198 -1 -135 -1 -225 -4 -267 -8 -6 0 -14 -9 -16
-18 -3 -13 -5 -10 -6 6 -1 19 -4 22 -12 14 -6 -6 -17 -9 -25 -6 -7 2 -21 -1
-31 -7 -11 -7 -12 -10 -3 -7 8 2 24 1 35 -4 18 -7 18 -8 -5 -8 -14 -1 -32 -6
-40 -12 -12 -9 -11 -10 7 -6 15 3 20 1 16 -9 -3 -8 0 -14 6 -14 7 0 14 7 17
15 4 8 13 15 22 15 13 0 12 -3 -4 -15 -10 -8 -14 -15 -9 -15 6 0 4 -4 -4 -9
-15 -10 -51 -3 -51 10 0 5 -5 9 -11 9 -17 0 1 -21 29 -32 16 -6 22 -12 14 -15
-6 -3 -12 -11 -12 -19 0 -8 -4 -14 -10 -14 -5 0 -7 7 -4 15 4 10 0 13 -15 10
-23 -4 -53 -29 -45 -37 2 -3 -2 -11 -11 -18 -8 -7 -15 -17 -15 -22 0 -6 7 -5
15 2 21 18 30 6 10 -14 -9 -9 -12 -16 -5 -16 6 0 8 -4 5 -10 -6 -10 9 -15 30
-10 5 1 6 -2 2 -7 -13 -12 -31 -10 -43 6 -9 12 -13 10 -26 -7 -8 -12 -18 -19
-21 -15 -4 3 -7 -1 -7 -9 0 -9 5 -18 12 -20 6 -2 -3 -10 -20 -17 -33 -14 -42
-35 -19 -45 8 -3 6 -9 -8 -18 -18 -12 -16 -14 30 -19 28 -3 -665 -7 -1538 -7
-1057 -1 -1586 1 -1582 8 3 6 0 10 -7 10 -8 0 -6 5 5 11 22 13 22 30 0 22 -15
-6 -16 -5 -3 9 8 9 19 13 24 10 5 -3 6 0 2 6 -4 6 -14 8 -23 5 -11 -4 -14 -3
-9 5 4 7 17 12 29 12 18 0 19 2 7 10 -13 9 -7 14 13 11 4 0 7 3 7 9 0 5 -5 10
-11 10 -5 0 -7 5 -4 10 3 6 2 10 -3 10 -5 0 -12 9 -15 21 -3 12 -10 18 -17 14
-8 -5 -8 -11 -1 -19 8 -9 7 -13 -2 -13 -6 0 -16 -2 -22 -3 -23 -6 -34 1 -28
17 5 13 2 15 -15 11 -12 -4 -25 -2 -28 3 -3 5 10 9 29 9 19 0 40 7 48 16 11
13 9 14 -16 8 -20 -5 -26 -4 -21 5 4 6 -9 3 -28 -6 -20 -10 -34 -23 -31 -30 5
-15 -11 -27 -25 -18 -8 5 -7 11 0 21 10 11 5 12 -27 9 -21 -3 -54 -5 -73 -4
-68 2 -95 -4 -123 -28 -14 -12 -18 -13 -11 -3 5 8 9 19 9 24 0 5 9 12 20 17
11 4 16 8 10 9 -42 6 -72 5 -82 -3 -9 -6 -13 -6 -13 1 0 9 31 25 52 27 3 0 9
3 13 7 4 4 -7 4 -24 2 -18 -3 -31 -1 -31 5 0 10 23 16 45 11 6 -1 7 2 2 6 -4
4 3 19 15 32 13 14 17 22 11 18 -7 -4 -13 -2 -13 3 0 6 5 11 11 11 5 0 8 4 5
9 -3 5 1 11 8 14 8 3 17 1 20 -6 3 -7 4 3 3 21 -1 23 -6 32 -17 31 -8 -1 -17
0 -20 1 -19 7 -41 7 -46 -1 -3 -5 -10 -9 -15 -9 -6 0 -7 5 -4 10 4 6 -41 10
-129 10 -98 0 -136 3 -139 13 -4 9 -6 9 -6 0 -1 -7 -11 -13 -23 -12 -22 0 -22
1 -3 9 19 7 19 8 2 15 -10 4 -31 5 -47 1 -17 -3 -30 -1 -30 4 0 10 11 10 2988
10 l1662 0 0 35 c0 20 -4 34 -9 30 -5 -3 -12 -1 -16 5 -3 5 1 10 9 10 12 0 16
11 16 50 0 27 -3 49 -8 49 -21 -4 -42 2 -42 12 0 5 4 8 9 5 4 -3 6 6 3 21 -4
20 -2 24 8 18 10 -6 12 -4 6 10 -4 11 -1 22 6 27 9 7 4 8 -14 5 -15 -2 -25 0
-22 4 3 5 17 9 31 9 15 0 24 3 21 6 -14 14 -293 0 -303 -15 -2 -4 13 -6 33 -4
l37 2 -39 -10 c-30 -7 -42 -6 -49 3 -7 10 -10 10 -14 1 -2 -7 -9 -13 -14 -13
-6 0 -7 5 -3 12 5 8 -3 9 -30 5 -22 -3 -34 -2 -31 4 4 5 -3 9 -14 9 -12 0 -21
-4 -21 -10 0 -5 -7 -6 -17 -3 -11 4 -14 3 -9 -5 5 -8 -1 -12 -18 -12 -23 0
-25 -2 -14 -20 12 -18 13 -18 33 -2 20 17 20 17 1 -5 -19 -23 -11 -32 12 -13
7 5 5 2 -3 -7 -12 -13 -18 -14 -27 -5 -7 7 -19 12 -28 12 -13 0 -13 -1 0 -10
13 -8 12 -10 -3 -10 -16 0 -16 -2 3 -22 23 -25 26 -39 8 -34 -7 1 -10 1 -5 -1
4 -3 5 -9 1 -14 -8 -13 10 -11 25 4 10 10 12 9 9 -3 -2 -8 -10 -18 -18 -22 -8
-4 4 -7 27 -7 41 -1 63 -14 43 -26 -22 -14 -9 -27 20 -21 16 3 30 1 30 -4 0
-5 -49 -10 -109 -12 -60 -2 -107 1 -104 5 2 4 -51 4 -119 0 -184 -12 -3917 -7
-3804 4 22 3 46 12 53 21 12 16 13 16 7 0 -5 -16 1 -18 46 -18 31 0 49 4 45
10 -3 5 -19 8 -35 6 -17 -2 -30 1 -30 5 0 5 9 9 21 9 12 0 19 5 16 13 -2 6
-15 11 -28 9 -24 -3 -24 -3 4 16 15 10 24 22 20 25 -10 11 -25 8 -18 -3 3 -5
0 -11 -7 -11 -7 -1 -20 -2 -28 -3 -8 0 -14 -8 -12 -16 3 -12 1 -12 -9 -3 -9 9
-9 16 -1 26 7 8 8 17 4 21 -4 4 -2 7 3 6 6 -1 38 -2 72 -1 52 1 61 4 56 17 -3
8 -11 13 -17 11 -6 -2 -20 -1 -31 4 -16 6 -14 8 13 8 19 1 31 5 27 11 -3 6 -1
10 4 10 6 0 11 -4 11 -10 0 -6 26 -10 59 -10 56 0 59 1 53 23 -3 12 -10 26
-16 30 -6 4 12 7 40 5 31 -2 50 1 48 7 -3 6 -40 9 -89 8 -47 -1 -83 1 -81 5 2
4 -28 6 -67 5 -40 -2 -66 0 -60 3 7 3 13 12 13 20 0 9 4 13 8 10 4 -2 14 -1
22 5 9 5 10 9 3 9 -6 0 -14 8 -16 18 -4 16 -5 16 -6 0 -1 -24 -18 -23 -33 2
-7 11 -18 20 -25 20 -7 0 -13 6 -13 13 0 9 12 11 40 9 28 -3 40 0 40 9 0 7 -3
9 -7 6 -3 -4 -13 -1 -21 6 -9 7 -13 7 -9 1 4 -7 -2 -10 -18 -6 -14 2 -28 9
-32 15 -3 5 -1 7 4 4 6 -4 26 -4 44 0 l32 6 -46 12 c-25 6 -62 11 -81 10 -19
0 -32 3 -30 7 3 4 -4 8 -16 8 -13 0 -19 -4 -14 -12 5 -7 3 -8 -6 -3 -8 5 -31
8 -52 8 -21 0 -38 4 -38 9 0 5 6 8 13 7 24 -3 38 1 33 10 -3 4 -36 9 -73 10
-37 1 -69 4 -72 6 -5 6 420 6 2992 5 l1807 -1 0 21 0 20 -1634 0 c-981 0
-1637 -4 -1640 -9 -4 -6 -20 -6 -39 -1 -17 5 -354 11 -747 14 -393 3 -717 5
-719 5 -3 1 4 7 14 15 11 8 23 12 27 10 5 -3 8 2 8 10 0 9 -5 16 -11 16 -5 0
-7 5 -4 10 3 6 2 10 -4 10 -5 0 -11 -5 -13 -10 -2 -6 -14 -12 -26 -15 -18 -3
-22 0 -18 10 3 8 1 15 -5 15 -5 0 -12 -7 -15 -15 -8 -20 -30 -19 -38 3 -3 9
-9 23 -12 30 -4 8 7 12 38 12 l44 0 -2 35 c-2 20 1 33 6 30 5 -3 11 -1 15 5 4
6 -9 11 -32 11 -28 1 -31 3 -13 6 14 3 28 9 31 15 3 5 14 -6 23 -24 12 -22 16
-25 13 -11 -3 13 -1 26 4 29 6 4 6 11 -1 19 -8 9 -6 14 6 19 9 3 20 4 25 0 5
-3 9 -1 9 5 0 5 -6 12 -13 15 -6 3 5 4 26 3 20 0 37 -5 37 -10 0 -4 5 -5 10
-2 6 3 10 11 10 16 0 6 -4 8 -9 4 -5 -3 -12 -1 -16 5 -7 11 -85 4 -99 -10 -6
-6 -20 -10 -33 -10 -16 0 -23 6 -23 20 0 11 -4 20 -10 20 -5 0 -7 -7 -4 -15 4
-8 1 -15 -5 -15 -10 0 -12 6 -10 28 0 4 -10 10 -23 14 -23 6 -23 6 -1 7 25 1
38 16 23 26 -5 3 -10 1 -10 -4 0 -6 -4 -11 -10 -11 -5 0 -10 6 -10 13 0 18 44
35 85 33 19 -1 35 2 35 6 0 5 -15 8 -33 8 -18 0 -38 5 -44 11 -7 7 -42 13 -78
14 -75 3 -102 15 -32 15 37 0 45 3 41 15 -4 8 -1 15 5 15 6 0 11 -7 11 -15 0
-11 16 -14 80 -12 44 1 80 5 80 9 0 4 -33 9 -72 11 -40 1 258 4 663 5 662 2
737 4 743 18 3 9 6 18 6 20 0 2 -362 4 -805 4 -798 0 -805 0 -805 -20z m161
-240 c6 0 7 4 4 10 -3 5 0 7 9 4 16 -6 30 -34 21 -42 -3 -3 -5 0 -5 7 0 7 -5
9 -10 6 -13 -8 -40 13 -39 29 0 7 2 6 6 -1 2 -7 9 -13 14 -13z m19 -112 c0
-10 -26 -9 -60 2 -21 7 -17 8 18 7 23 0 42 -4 42 -9z m-86 -56 c2 -4 1 -14 -3
-21 -6 -9 -10 -7 -14 8 -5 20 7 29 17 13z m32 -16 c0 -14 -5 -22 -12 -19 -6 2
-10 13 -7 24 7 27 19 24 19 -5z m-11 -36 c3 -5 1 -10 -4 -10 -6 0 -11 5 -11
10 0 6 2 10 4 10 3 0 8 -4 11 -10z m75 -6 c0 -2 -15 -4 -32 -4 -23 0 -29 3
-19 9 12 8 51 4 51 -5z m97 -90 c-10 -10 -108 -11 -113 -2 -3 4 23 8 57 8 34
0 59 -3 56 -6z m146 -181 c-7 -2 -19 -2 -25 0 -7 3 -2 5 12 5 14 0 19 -2 13
-5z m4390 -10 c-7 -2 -19 -2 -25 0 -7 3 -2 5 12 5 14 0 19 -2 13 -5z m87 -8
c-7 -8 -16 -13 -20 -10 -5 3 -12 1 -15 -5 -5 -8 -11 -7 -21 1 -23 19 -16 26
27 27 36 2 40 0 29 -13z m-4266 -23 c2 -4 -4 -9 -15 -9 -10 -1 -19 2 -19 8 0
11 27 12 34 1z m99 -7 c8 -8 17 -11 21 -8 3 4 6 -1 6 -10 0 -22 -16 -22 -32 1
-9 13 -20 16 -38 11 l-25 -6 25 -11 c14 -6 18 -11 10 -11 -16 -1 -40 17 -40
30 0 4 10 10 23 12 12 2 25 5 29 6 4 0 13 -6 21 -14z m3877 -15 c0 -4 -6 -10
-13 -13 -7 -3 -13 3 -13 13 0 10 6 16 13 13 7 -3 13 -9 13 -13z m239 -26 c7
-19 19 -38 27 -41 8 -3 14 -12 14 -20 0 -8 5 -11 10 -8 6 4 7 11 4 17 -4 7 -2
8 4 4 14 -9 5 -33 -16 -41 -9 -3 -13 -3 -9 1 4 4 -4 22 -18 40 -14 18 -25 36
-25 39 0 4 -7 13 -15 21 -18 19 -20 35 -2 28 7 -2 19 -21 26 -40z m-4259 24
c0 -4 -4 -8 -9 -8 -6 0 -12 4 -15 8 -3 5 1 9 9 9 8 0 15 -4 15 -9z m-15 -50
c6 -4 0 -8 -12 -8 -16 0 -21 4 -16 15 3 9 8 12 12 8 3 -4 11 -11 16 -15z
m4335 2 c0 -5 -2 -10 -4 -10 -3 0 -8 5 -11 10 -3 6 -1 10 4 10 6 0 11 -4 11
-10z m-340 -44 c0 -9 -30 -14 -35 -6 -4 6 3 10 14 10 12 0 21 -2 21 -4z m65
-76 c-3 -5 32 -11 77 -13 l83 -3 -87 -2 c-80 -2 -87 -1 -85 17 0 11 5 17 9 15
5 -3 6 -9 3 -14z m315 -16 c0 -2 -13 -4 -30 -4 -16 0 -30 4 -30 8 0 5 14 7 30
4 17 -2 30 -6 30 -8z m-4537 -1 c-7 -2 -21 -2 -30 0 -10 3 -4 5 12 5 17 0 24
-2 18 -5z m-30 -80 c-7 -2 -19 -2 -25 0 -7 3 -2 5 12 5 14 0 19 -2 13 -5z
m4385 -130 c-3 -10 -11 -16 -19 -13 -8 2 -33 4 -56 4 -24 0 -43 4 -43 9 0 5 6
7 14 4 8 -3 27 -2 43 3 47 14 65 12 61 -7z m-403 -32 c3 -5 1 -12 -5 -16 -5
-3 -10 1 -10 9 0 18 6 21 15 7z m-2 -57 c3 -3 3 -13 0 -21 -5 -12 -7 -12 -14
-1 -15 23 -4 40 14 22z m-3453 -30 c0 -2 -15 -4 -32 -4 -23 0 -29 3 -19 9 12
8 51 4 51 -5z m53 -5 c-8 -8 -16 -8 -30 0 -16 9 -14 10 12 11 21 0 26 -3 18
-11z m4017 -63 c0 -8 -4 -17 -8 -20 -4 -2 -8 4 -8 15 0 10 4 19 8 19 4 0 8 -6
8 -14z m-150 -16 c0 -4 -8 -11 -17 -14 -14 -6 -15 -9 -3 -16 12 -7 12 -11 -1
-26 -13 -16 -12 -17 4 -11 11 4 28 1 40 -8 l21 -15 -22 0 c-13 0 -20 4 -17 10
4 6 -4 9 -17 7 -12 -1 -23 3 -24 8 -2 24 -17 44 -27 38 -6 -3 -7 -1 -3 6 4 6
12 8 18 5 7 -5 9 -2 6 7 -4 9 2 14 18 15 13 1 24 -2 24 -6z m-3844 -15 c-8 -8
-16 -15 -19 -15 -2 0 -4 7 -4 15 0 8 9 15 19 15 17 0 18 -2 4 -15z m40 -5 c0
-12 -4 -16 -9 -11 -5 5 -6 14 -3 20 10 15 12 14 12 -9z m3241 -17 c-3 -3 -11
-2 -17 2 -9 6 -9 10 1 16 14 8 27 -7 16 -18z m-3207 13 c0 -3 -4 -8 -10 -11
-5 -3 -10 -1 -10 4 0 6 5 11 10 11 6 0 10 -2 10 -4z m3683 -9 c3 -7 -3 -13
-14 -14 -12 -1 -16 3 -12 13 6 18 19 18 26 1z m-3646 -29 c-3 -8 -6 -5 -6 6
-1 11 2 17 5 13 3 -3 4 -12 1 -19z m3630 -4 c-3 -3 -12 -4 -19 -1 -8 3 -5 6 6
6 11 1 17 -2 13 -5z m-303 -12 c2 -4 -7 -8 -22 -9 -24 -2 -24 -1 -7 7 11 5 21
9 22 9 1 1 4 -3 7 -7z m226 -2 c0 -5 -5 -10 -11 -10 -5 0 -7 5 -4 10 3 6 8 10
11 10 2 0 4 -4 4 -10z m60 -6 c0 -2 -9 -4 -20 -4 -11 0 -20 4 -20 9 0 5 9 7
20 4 11 -3 20 -7 20 -9z m-3597 -1 c-7 -2 -21 -2 -30 0 -10 3 -4 5 12 5 17 0
24 -2 18 -5z m3230 0 c-7 -2 -19 -2 -25 0 -7 3 -2 5 12 5 14 0 19 -2 13 -5z
m-3585 -80 c-10 -2 -26 -2 -35 0 -10 3 -2 5 17 5 19 0 27 -2 18 -5z m3307
-102 c-3 -5 4 -13 16 -16 11 -4 18 -9 16 -11 -2 -3 -16 1 -31 7 -19 9 -23 15
-14 21 17 10 20 10 13 -1z m68 -8 c-7 -2 -21 -2 -30 0 -10 3 -4 5 12 5 17 0
24 -2 18 -5z m607 -148 c0 -9 -9 -15 -21 -15 -18 0 -19 2 -9 15 7 8 16 15 21
15 5 0 9 -7 9 -15z m-387 -2 c-7 -2 -19 -2 -25 0 -7 3 -2 5 12 5 14 0 19 -2
13 -5z m-499 -68 c3 -8 1 -15 -4 -15 -6 0 -10 7 -10 15 0 8 2 15 4 15 2 0 6
-7 10 -15z m46 -36 c0 -6 -4 -7 -10 -4 -5 3 -10 11 -10 16 0 6 5 7 10 4 6 -3
10 -11 10 -16z m825 11 c3 -5 -1 -10 -10 -10 -9 0 -13 5 -10 10 3 6 8 10 10
10 2 0 7 -4 10 -10z m-770 -9 c3 -5 0 -13 -6 -17 -8 -5 -9 -3 -4 6 6 10 4 12
-9 7 -10 -4 -15 -3 -11 3 8 13 22 13 30 1z m551 -15 c17 -13 17 -16 4 -30 -13
-13 -18 -13 -34 -1 -11 8 -16 21 -13 30 8 19 18 19 43 1z m-157 -15 c2 -1 -2
-8 -9 -16 -8 -10 -21 -13 -39 -8 -34 8 -38 12 -21 23 12 8 36 8 69 1z m-307
-23 c-9 -9 -15 -9 -24 0 -9 9 -7 12 12 12 19 0 21 -3 12 -12z m51 -5 c-7 -2
-19 -2 -25 0 -7 3 -2 5 12 5 14 0 19 -2 13 -5z m-2850 -50 c-7 -2 -21 -2 -30
0 -10 3 -4 5 12 5 17 0 24 -2 18 -5z m97 -32 c0 -5 -9 -7 -20 -4 -11 3 -20 7
-20 9 0 2 9 4 20 4 11 0 20 -4 20 -9z"/>
<path d="M1837 2130 c-5 -20 0 -20 353 -20 317 0 359 2 364 16 3 9 6 18 6 20
0 2 -161 4 -359 4 -350 0 -359 0 -364 -20z"/>
<path d="M2795 2132 c-3 -8 -5 -16 -5 -18 0 -2 157 -4 349 -4 309 0 350 2 355
16 3 9 6 16 6 17 0 1 -157 2 -350 2 -282 0 -351 -3 -355 -13z"/>
<path d="M3663 2135 c-3 -9 -4 -18 -1 -20 2 -3 229 -5 505 -5 428 -1 503 -3
522 -16 19 -14 25 -12 22 9 -2 12 27 8 36 -5 9 -14 10 -14 83 -16 47 -2 50 -3
46 -26 -4 -20 1 -25 26 -30 16 -3 27 -10 24 -15 -3 -5 1 -11 9 -15 8 -3 15 -1
15 5 0 6 4 8 9 4 6 -3 8 4 6 15 -2 11 0 20 6 20 5 0 9 4 9 9 0 5 -15 8 -34 6
-40 -3 -70 10 -44 20 10 4 21 5 25 2 4 -2 17 -1 28 4 17 6 17 8 3 8 -10 1 -18
5 -18 10 0 5 6 9 13 8 35 -1 47 5 47 23 0 20 -7 20 -665 20 -591 0 -666 -2
-672 -15z m1204 -31 c-3 -3 -12 -4 -19 -1 -8 3 -5 6 6 6 11 1 17 -2 13 -5z"/>
<path d="M280 2090 c0 -5 21 -10 48 -9 35 0 42 3 27 9 -28 12 -75 12 -75 0z"/>
<path d="M4668 2083 c7 -3 16 -2 19 1 4 3 -2 6 -13 5 -11 0 -14 -3 -6 -6z"/>
<path d="M4815 2060 c-3 -5 -1 -10 4 -10 6 0 11 5 11 10 0 6 -2 10 -4 10 -3 0
-8 -4 -11 -10z"/>
<path d="M375 2040 c-10 -16 22 -23 42 -10 16 10 16 11 1 6 -10 -3 -18 -1 -18
4 0 13 -17 13 -25 0z"/>
<path d="M258 2033 c7 -3 16 -2 19 1 4 3 -2 6 -13 5 -11 0 -14 -3 -6 -6z"/>
<path d="M226 1985 c-10 -8 -23 -12 -28 -9 -11 7 -6 -19 6 -28 6 -4 18 -2 29
3 12 7 22 7 30 1 8 -7 16 -6 24 3 10 11 10 15 0 19 -7 4 0 4 16 1 17 -3 27 -1
27 6 0 8 -15 10 -47 5 -33 -4 -43 -3 -33 4 8 5 11 10 5 10 -5 -1 -19 -7 -29
-15z"/>
<path d="M4970 1986 c0 -4 5 -16 10 -26 8 -16 8 -18 -5 -14 -8 4 -15 9 -15 13
0 4 -9 7 -19 7 -15 0 -17 -3 -9 -13 6 -7 13 -11 17 -9 11 5 41 -33 31 -39 -6
-4 -10 -1 -10 6 0 8 -4 8 -15 -1 -19 -16 -3 -30 25 -23 15 4 18 13 16 44 -1
22 -8 45 -14 51 -7 7 -12 9 -12 4z"/>
<path d="M323 1868 c-2 -16 1 -18 10 -9 7 7 8 14 1 21 -6 6 -10 2 -11 -12z"/>
<path d="M263 1866 c0 -8 10 -13 22 -12 28 1 28 26 0 26 -12 0 -22 -6 -22 -14z"/>
<path d="M4848 1873 c23 -2 42 -9 42 -15 0 -5 6 -8 13 -5 8 3 20 1 28 -4 11
-7 9 -9 -8 -9 -23 0 -40 -17 -28 -28 3 -3 10 0 15 8 7 12 12 12 22 2 9 -9 9
-12 0 -12 -7 0 -12 -4 -12 -9 0 -5 9 -7 20 -4 10 3 18 10 17 15 -1 6 6 12 16
13 15 3 16 1 6 -11 -10 -12 -9 -13 5 -8 18 7 23 74 5 74 -6 0 -9 -7 -5 -15 3
-8 1 -15 -3 -15 -5 0 -11 7 -15 15 -4 12 -22 15 -83 13 -47 -1 -61 -3 -35 -5z"/>
<path d="M155 1740 c4 -6 11 -8 16 -5 14 9 11 15 -7 15 -8 0 -12 -5 -9 -10z"/>
<path d="M410 1589 c-22 -6 -20 -7 13 -8 38 -1 47 3 25 11 -7 3 -24 1 -38 -3z"/>
<path d="M4855 1589 l-90 -5 118 -2 c113 -2 147 2 90 9 -16 2 -68 1 -118 -2z"/>
<path d="M4723 1583 c9 -2 23 -2 30 0 6 3 -1 5 -18 5 -16 0 -22 -2 -12 -5z"/>
<path d="M4930 1471 c-25 -3 -40 -9 -35 -12 6 -4 18 -5 28 -4 9 2 17 -2 17 -8
0 -9 3 -9 8 -1 4 6 16 16 27 22 11 6 16 11 10 10 -5 0 -30 -4 -55 -7z"/>
<path d="M621 1422 c-1 -13 -5 -20 -11 -17 -5 3 -10 1 -10 -4 0 -16 20 -13 26
4 3 8 4 20 1 27 -3 7 -6 3 -6 -10z"/>
<path d="M4874 1425 c-18 -14 -17 -14 9 -13 27 2 35 12 18 22 -4 3 -17 -1 -27
-9z"/>
<path d="M4920 1430 c0 -5 5 -10 11 -10 5 0 7 5 4 10 -3 6 -8 10 -11 10 -2 0
-4 -4 -4 -10z"/>
<path d="M1258 1403 c12 -2 32 -2 45 0 12 2 2 4 -23 4 -25 0 -35 -2 -22 -4z"/>
<path d="M1173 1393 c9 -2 25 -2 35 0 9 3 1 5 -18 5 -19 0 -27 -2 -17 -5z"/>
<path d="M865 1380 c-3 -6 1 -7 9 -4 18 7 21 14 7 14 -6 0 -13 -4 -16 -10z"/>
<path d="M932 1378 c2 -6 11 -13 19 -16 11 -3 11 -2 -1 7 -12 9 -11 11 7 11
18 0 22 -5 20 -22 -1 -15 3 -23 13 -23 23 -1 41 -15 34 -27 -4 -6 -2 -8 4 -5
10 7 5 47 -7 45 -24 -3 -32 4 -26 22 6 18 2 20 -30 20 -24 0 -35 -4 -33 -12z"/>
<path d="M1010 1380 c0 -6 19 -7 48 -3 64 8 66 13 4 13 -29 0 -52 -4 -52 -10z"/>
<path d="M4390 1360 c8 -5 20 -10 25 -10 6 0 3 5 -5 10 -8 5 -19 10 -25 10 -5
0 -3 -5 5 -10z"/>
<path d="M794 1343 c10 -11 37 -12 30 -2 -3 5 -12 9 -21 9 -9 0 -13 -3 -9 -7z"/>
<path d="M990 1320 c-8 -5 -12 -11 -9 -14 2 -3 11 -1 19 4 8 5 12 11 9 14 -2
3 -11 1 -19 -4z"/>
<path d="M4420 1301 c0 -14 -6 -18 -22 -15 -21 4 -21 4 -3 -5 23 -10 35 -5 35
14 0 7 6 16 13 18 7 3 5 6 -5 6 -11 1 -18 -6 -18 -18z"/>
<path d="M4991 1304 c0 -11 3 -14 6 -6 3 7 2 16 -1 19 -3 4 -6 -2 -5 -13z"/>
<path d="M675 1260 c-17 -19 -17 -20 1 -21 10 -1 43 -3 72 -5 28 -2 52 -1 52
4 0 4 -14 9 -32 10 -42 3 -47 9 -17 21 23 9 22 9 -8 9 -22 -1 -30 -5 -26 -14
3 -8 -1 -14 -11 -14 -10 0 -13 6 -10 15 8 21 1 19 -21 -5z"/>
<path d="M805 1270 c-3 -5 -1 -10 4 -10 6 0 11 5 11 10 0 6 -2 10 -4 10 -3 0
-8 -4 -11 -10z"/>
<path d="M650 1209 c0 -5 5 -7 10 -4 6 3 10 8 10 11 0 2 -4 4 -10 4 -5 0 -10
-5 -10 -11z"/>
<path d="M712 1211 c-10 -6 -8 -10 8 -14 13 -3 29 0 37 9 13 12 11 14 -9 14
-13 0 -29 -4 -36 -9z"/>
<path d="M4538 1183 c7 -3 16 -2 19 1 4 3 -2 6 -13 5 -11 0 -14 -3 -6 -6z"/>
<path d="M4510 1166 c0 -2 7 -7 16 -10 8 -3 12 -2 9 4 -6 10 -25 14 -25 6z"/>
<path d="M4808 1073 c7 -3 16 -2 19 1 4 3 -2 6 -13 5 -11 0 -14 -3 -6 -6z"/>
<path d="M4863 1073 c9 -2 23 -2 30 0 6 3 -1 5 -18 5 -16 0 -22 -2 -12 -5z"/>
<path d="M851 1040 c19 -11 24 -70 6 -66 -7 1 -9 1 -4 -1 4 -3 5 -9 1 -14 -3
-5 -1 -9 5 -9 6 0 15 9 21 20 6 11 15 18 19 15 5 -2 14 2 21 10 7 8 9 15 4 15
-12 0 19 20 31 20 6 0 6 -3 -1 -8 -6 -4 -13 -14 -16 -23 -6 -14 -3 -15 22 -6
24 9 26 13 17 29 -16 25 -57 24 -64 -2 -4 -16 -7 -17 -19 -5 -8 7 -14 17 -14
22 0 5 -10 9 -22 10 -19 2 -20 0 -7 -7z"/>
<path d="M4345 970 c-3 -5 -1 -10 4 -10 6 0 11 5 11 10 0 6 -2 10 -4 10 -3 0
-8 -4 -11 -10z"/>
<path d="M904 963 c-20 -7 -3 -43 20 -43 17 0 18 2 6 10 -12 8 -13 12 -2 19
11 7 11 9 0 13 -7 3 -18 3 -24 1z"/>
<path d="M840 925 c0 -8 2 -15 4 -15 2 0 6 7 10 15 3 8 1 15 -4 15 -6 0 -10
-7 -10 -15z"/>
<path d="M876 925 c-3 -8 -1 -15 4 -15 6 0 10 7 10 15 0 8 -2 15 -4 15 -2 0
-6 -7 -10 -15z"/>
<path d="M4266 931 c-3 -5 1 -11 9 -14 9 -4 12 -1 8 9 -6 16 -10 17 -17 5z"/>
<path d="M1020 896 c0 -2 7 -6 15 -10 8 -3 15 -1 15 4 0 6 -7 10 -15 10 -8 0
-15 -2 -15 -4z"/>
<path d="M3716 524 c-3 -8 -1 -14 4 -14 6 0 10 4 10 9 0 5 10 8 23 6 13 -3 43
-1 67 4 43 9 41 9 -27 9 -51 -1 -73 -5 -77 -14z"/>
<path d="M3835 510 c-3 -5 -1 -18 4 -27 9 -16 10 -14 11 10 0 28 -5 34 -15 17z"/>
<path d="M4030 489 c0 -5 5 -7 10 -4 6 3 10 8 10 11 0 2 -4 4 -10 4 -5 0 -10
-5 -10 -11z"/>
<path d="M3795 450 c-8 -13 5 -13 25 0 13 8 13 10 -2 10 -9 0 -20 -4 -23 -10z"/>
<path d="M1281 434 c0 -11 3 -14 6 -6 3 7 2 16 -1 19 -3 4 -6 -2 -5 -13z"/>
<path d="M3846 431 c-17 -6 -17 -8 -4 -14 10 -3 19 0 22 9 3 8 4 14 3 13 -1 0
-11 -4 -21 -8z"/>
<path d="M3862 398 c-20 -20 -14 -35 19 -48 26 -11 32 -11 39 1 12 19 4 24
-15 9 -10 -8 -15 -9 -15 -1 0 6 -5 10 -11 9 -6 -2 -14 3 -16 10 -3 7 1 10 10
6 8 -3 18 -1 22 5 4 7 0 8 -11 4 -12 -4 -15 -3 -10 5 9 15 3 15 -12 0z"/>
<path d="M3994 395 c-18 -13 -18 -14 -1 -15 10 0 25 7 33 15 21 21 -5 21 -32
0z"/>
<path d="M3915 390 c-3 -5 1 -10 9 -10 9 0 16 5 16 10 0 6 -4 10 -9 10 -6 0
-13 -4 -16 -10z"/>
<path d="M1325 371 c-6 -11 13 -26 22 -17 4 3 0 6 -8 6 -11 0 -11 2 1 10 9 6
10 10 3 10 -6 0 -14 -4 -18 -9z"/>
<path d="M3820 370 c-13 -8 -12 -10 3 -10 9 0 17 5 17 10 0 12 -1 12 -20 0z"/>
<path d="M3670 366 c0 -2 7 -7 16 -10 8 -3 12 -2 9 4 -6 10 -25 14 -25 6z"/>
<path d="M4104 355 c8 -8 19 -15 25 -15 6 0 11 -5 11 -12 0 -6 3 -8 7 -4 4 4
-3 16 -17 26 -30 23 -48 26 -26 5z"/>
<path d="M3770 350 c0 -5 7 -7 15 -4 8 4 15 8 15 10 0 2 -7 4 -15 4 -8 0 -15
-4 -15 -10z"/>
<path d="M3810 339 c0 -5 5 -7 10 -4 6 3 10 8 10 11 0 2 -4 4 -10 4 -5 0 -10
-5 -10 -11z"/>
<path d="M4000 339 c0 -4 6 -10 13 -12 6 -3 -6 -6 -27 -6 -30 -1 -37 -4 -29
-12 6 -6 9 -18 6 -26 -4 -11 0 -14 18 -11 16 2 23 9 21 20 -2 14 30 35 48 31
3 -1 11 5 18 13 11 12 6 14 -28 12 -22 -1 -40 -5 -40 -9z"/>
<path d="M4093 328 c1 -15 6 -23 11 -18 4 4 4 16 -2 26 -9 16 -10 14 -9 -8z"/>
<path d="M3903 317 c-41 -28 -43 -43 -3 -22 24 12 30 13 30 2 0 -7 -5 -18 -12
-25 -13 -13 0 -16 18 -4 11 7 14 73 4 71 -3 0 -20 -10 -37 -22z"/>
<path d="M3838 323 c7 -3 16 -2 19 1 4 3 -2 6 -13 5 -11 0 -14 -3 -6 -6z"/>
<path d="M3760 310 c0 -5 -13 -10 -30 -10 -21 0 -30 -5 -30 -16 0 -10 -5 -14
-16 -10 -8 3 -12 2 -9 -4 7 -11 35 -13 59 -4 9 3 13 11 9 17 -3 6 4 3 18 -6
26 -19 69 -23 69 -7 0 6 -5 10 -11 10 -6 0 -9 7 -5 15 3 8 1 15 -4 15 -6 0
-10 -6 -10 -12 -1 -8 -6 -6 -14 5 -15 19 -26 22 -26 7z m25 -30 c3 -6 -1 -7
-9 -4 -18 7 -21 14 -7 14 6 0 13 -4 16 -10z"/>
<path d="M3830 300 c0 -5 5 -10 10 -10 6 0 10 5 10 10 0 6 -4 10 -10 10 -5 0
-10 -4 -10 -10z"/>
<path d="M4028 263 c12 -2 22 -9 22 -14 0 -5 5 -9 11 -9 8 0 8 5 -1 15 -7 8
-22 14 -34 14 -20 -2 -20 -2 2 -6z"/>
<path d="M3740 240 c-12 -8 -10 -10 10 -10 20 0 22 -2 10 -10 -10 -7 -11 -10
-2 -10 7 0 15 7 18 15 4 8 10 12 15 9 5 -3 9 0 9 5 0 14 -40 14 -60 1z"/>
<path d="M4889 73 c-1 -1 -2 -9 -3 -15 -1 -8 -15 -12 -44 -9 -41 2 -43 1 -40
-21 4 -33 75 -39 103 -8 19 21 45 27 45 9 0 -5 -4 -7 -10 -4 -6 3 -7 -1 -4 -9
11 -28 27 -18 21 12 -5 24 -2 30 21 39 23 9 19 10 -30 10 -32 0 -59 -2 -59 -4z
m44 -20 c-7 -2 -19 -2 -25 0 -7 3 -2 5 12 5 14 0 19 -2 13 -5z"/>
<path d="M3750 42 c0 -9 -7 -11 -19 -7 -11 3 -22 1 -26 -5 -3 -5 1 -10 9 -10
9 0 16 -4 16 -10 0 -6 45 -10 116 -10 98 0 115 2 105 14 -21 26 -69 40 -86 26
-11 -9 -15 -9 -15 -1 0 7 -5 9 -10 6 -6 -4 -8 -10 -6 -14 3 -3 -4 -7 -14 -7
-10 0 -17 3 -14 7 2 4 -5 9 -16 12 -11 3 -20 0 -20 -6 0 -7 -5 -5 -10 3 -7 11
-10 12 -10 2z"/>
<path d="M4236 41 c-3 -4 -17 -6 -31 -3 -20 3 -25 0 -25 -17 0 -31 43 -28 58
4 11 24 9 35 -2 16z"/>
<path d="M4289 43 c-10 -2 -19 -13 -22 -24 -5 -17 0 -19 49 -19 36 0 54 4 54
13 0 8 2 9 8 1 5 -8 70 -12 211 -13 198 0 203 0 185 18 -10 10 -22 17 -26 14
-5 -2 -8 0 -8 5 0 13 -293 12 -302 -1 -4 -7 -11 -7 -21 1 -13 11 -87 14 -128
5z"/>
<path d="M4970 34 c0 -14 3 -14 15 -4 8 7 15 14 15 16 0 2 -7 4 -15 4 -8 0
-15 -7 -15 -16z"/>
<path d="M3981 27 c-19 -19 -12 -22 62 -24 43 -2 66 1 58 6 -7 5 -11 13 -7 19
8 14 -99 13 -113 -1z"/>
<path d="M1586 22 c-13 -13 -4 -22 19 -20 14 1 25 5 25 9 0 9 -37 18 -44 11z"/>
<path d="M3575 19 c-4 -6 -5 -12 -2 -15 2 -3 7 2 10 11 7 17 1 20 -8 4z"/>
<path d="M3668 23 c7 -3 16 -2 19 1 4 3 -2 6 -13 5 -11 0 -14 -3 -6 -6z"/>
<path d="M1648 3 c7 -3 16 -2 19 1 4 3 -2 6 -13 5 -11 0 -14 -3 -6 -6z"/>
</g>
</svg>
